HIERARCHY
ROOT Hips
{
  OFFSET 56.0804 96.2352 16.7261
  CHANNELS 6 Xposition Yposition Zposition Zrotation Xrotation Yrotation
  JOINT spine
  {
    OFFSET 0 8.13249 0.467659
    CHANNELS 3 Zrotation Xrotation Yrotation
    JOINT spine1
    {
      OFFSET 0 10.3498 0
      CHANNELS 3 Zrotation Xrotation Yrotation
      JOINT spine2
      {
        OFFSET 0 9.91699 0
        CHANNELS 3 Zrotation Xrotation Yrotation
        JOINT Neck
        {
          OFFSET 0 25.461 1.2139
          CHANNELS 3 Zrotation Xrotation Yrotation
          JOINT Head
          {
            OFFSET 0 7.69245 0
            CHANNELS 3 Zrotation Xrotation Yrotation
            End Site
            {
              OFFSET 0 18.62 -6.14063
            }
          }
        }
        JOINT RightShoulder
        {
          OFFSET -4.17575 10.7096 -0.581445
          CHANNELS 3 Zrotation Xrotation Yrotation
          JOINT RightArm
          {
            OFFSET 0 14.0466 0
            CHANNELS 3 Zrotation Xrotation Yrotation
            JOINT RightArmRoll
            {
              OFFSET 0 7.09099 0
              CHANNELS 3 Zrotation Xrotation Yrotation
              JOINT RightForeArm
              {
                OFFSET 0 20.6535 0
                CHANNELS 3 Zrotation Xrotation Yrotation
                JOINT RightForeArmRoll
                {
                  OFFSET 0 7.95719 0
                  CHANNELS 3 Zrotation Xrotation Yrotation
                  JOINT RightHand
                  {
                    OFFSET 0 15.9683 0
                    CHANNELS 3 Zrotation Xrotation Yrotation
                    End Site
                    {
                      OFFSET 0 0 0
                    }
                  }
                }
              }
            }
          }
        }
        JOINT LeftShoulder
        {
          OFFSET 4.17575 10.7096 -0.581445
          CHANNELS 3 Zrotation Xrotation Yrotation
          JOINT LeftArm
          {
            OFFSET 0 14.0466 0
            CHANNELS 3 Zrotation Xrotation Yrotation
            JOINT LeftArmRoll
            {
              OFFSET 0 7.09098 0
              CHANNELS 3 Zrotation Xrotation Yrotation
              JOINT LeftForeArm
              {
                OFFSET 0 20.6535 0
                CHANNELS 3 Zrotation Xrotation Yrotation
                JOINT LeftForeArmRoll
                {
                  OFFSET 0 7.95718 0
                  CHANNELS 3 Zrotation Xrotation Yrotation
                  JOINT LeftHand
                  {
                    OFFSET 0 15.9683 0
                    CHANNELS 3 Zrotation Xrotation Yrotation
                    End Site
                    {
                      OFFSET 0 0 0
                    }
                  }
                }
              }
            }
          }
        }
      }
    }
  }
  JOINT RightUpLeg
  {
    OFFSET -7.20834 -1.32182 -1.10884
    CHANNELS 3 Zrotation Xrotation Yrotation
    JOINT RightUpLegRoll
    {
      OFFSET 0 18.7238 0
      CHANNELS 3 Zrotation Xrotation Yrotation
      JOINT RightLeg
      {
        OFFSET 0 -23.1866 0
        CHANNELS 3 Zrotation Xrotation Yrotation
        JOINT RightLegRoll
        {
          OFFSET 0 23.2624 0
          CHANNELS 3 Zrotation Xrotation Yrotation
          JOINT RightFoot
          {
            OFFSET 0 19.3621 0
            CHANNELS 3 Zrotation Xrotation Yrotation
            JOINT RightToeBase
            {
              OFFSET 0 16.1857 0
              CHANNELS 3 Zrotation Xrotation Yrotation
              End Site
              {
                OFFSET 0.00686052 7.83862 -0.903522
              }
            }
          }
        }
      }
    }
  }
  JOINT LeftUpLeg
  {
    OFFSET 7.20834 -1.32182 -1.10884
    CHANNELS 3 Zrotation Xrotation Yrotation
    JOINT LeftUpLegRoll
    {
      OFFSET 0 18.7239 0
      CHANNELS 3 Zrotation Xrotation Yrotation
      JOINT LeftLeg
      {
        OFFSET 0 23.1865 0
        CHANNELS 3 Zrotation Xrotation Yrotation
        JOINT LeftLegRoll
        {
          OFFSET 0 23.4775 0
          CHANNELS 3 Zrotation Xrotation Yrotation
          JOINT LeftFoot
          {
            OFFSET 0 19.147 0
            CHANNELS 3 Zrotation Xrotation Yrotation
            JOINT LeftToeBase
            {
              OFFSET 0 16.1857 0
              CHANNELS 3 Zrotation Xrotation Yrotation
              End Site
              {
                OFFSET -0.0307459 7.83863 -0.903522
              }
            }
          }
        }
      }
    }
  }
}
MOTION
Frames: 11
Frame Time: 0.00208333
51.5087 82.1832 19.9378 -0.566156 6.06297 3.14473 0.539637 1.33222 -0.048746 1.08679 6.66618 -0.180672 1.09148 8.31111 -0.199352 -4.52672 -10.9819 -6.71534 1.1666 -8.51402 -6.79833 56.4931 -10.6212 -6.62351 122.155 32.7682 9.60836 -4.13833e-008 1.05047e-007 -3.38475e-006 5.21559 -0.13695 -0.816712 -5.49491e-006 1.9926e-006 -3.06514 8.02899 -4.95145 0.697667 -61.3256 -1.39018 1.13458 -115.273 31.495 -1.90643 -2.14211e-006 -1.98145e-006 5.51095e-006 -7.73517 0.0441238 1.69562 2.32597e-006 6.81768e-006 3.10899 -8.02904 -4.95145 -0.69769 173.621 43.8472 6.34097 180 7.01503e-015 178.745 -176.382 72.5209 175.488 -1.03178e-006 3.14144e-006 3.05259 -93.2429 83.978 97.234 8.18327 30.075 -0.566784 -167.449 45.1434 -10.7445 4.54188e-006 -4.6773e-006 -1.19019 3.51977 -72.384 3.61337 3.40533e-006 -6.77318e-007 -3.43351 76.7607 83.7928 -80.5984 -8.11246 28.2084 -0.426504 
51.5159 82.0564 19.9376 -0.555716 6.00421 3.17995 0.539718 1.34349 -0.0478339 1.08696 6.68874 -0.178971 1.09164 8.33366 -0.197653 -4.55771 -10.9699 -6.74419 1.20357 -8.45813 -6.82435 56.4085 -10.55 -6.57701 122.553 33.1566 9.44359 -4.13833e-008 1.05047e-007 -3.38475e-006 5.00863 -0.0852611 -0.813425 -5.49491e-006 1.9926e-006 -3.06601 8.02899 -4.95145 0.697667 -61.2506 -1.37967 1.12078 -115.656 32.0247 -1.55633 -2.14211e-006 -1.98145e-006 5.51095e-006 -7.67346 0.053929 1.69933 2.32597e-006 6.81768e-006 3.10941 -8.02904 -4.95145 -0.69769 173.56 43.8372 6.43021 180 7.01502e-015 178.743 -176.33 72.6609 175.439 -1.03178e-006 3.14144e-006 3.07228 -95.21 83.9677 99.2332 8.18247 29.9528 -0.57833 -167.427 45.1972 -10.8353 4.54188e-006 -4.6773e-006 -1.19395 3.50344 -72.5518 3.6178 3.40533e-006 -6.77319e-007 -3.44276 77.6657 83.8164 -81.5105 -8.11423 28.1854 -0.398215 
51.5308 81.9517 19.8978 -0.548867 5.94503 3.21044 0.540398 1.35401 -0.0468614 1.08834 6.70979 -0.177235 1.09301 8.35471 -0.195938 -4.58925 -10.9556 -6.7713 1.2446 -8.40823 -6.84794 56.3181 -10.4776 -6.52932 122.944 33.5322 9.26265 -4.13833e-008 1.05047e-007 -3.38475e-006 4.82174 -0.0385507 -0.810173 -5.49492e-006 1.9926e-006 -3.06669 8.02899 -4.95145 0.697667 -61.1769 -1.37617 1.11129 -116.032 32.5341 -1.19037 -2.14211e-006 -1.98145e-006 5.51095e-006 -7.62576 0.0628358 1.69846 2.32597e-006 6.81768e-006 3.10926 -8.02904 -4.95145 -0.69769 173.51 43.8292 6.50787 180 7.01502e-015 178.741 -176.276 72.8 175.388 -1.03178e-006 3.14144e-006 3.09084 -97.0235 83.9517 101.077 8.18185 29.8447 -0.58965 -167.41 45.2456 -10.9107 4.54188e-006 -4.6773e-006 -1.1979 3.5097 -72.7161 3.63703 3.40533e-006 -6.7732e-007 -3.45416 78.5964 83.8394 -82.4508 -8.11593 28.1629 -0.370253 
51.5253 81.8644 19.8659 -0.546293 5.88633 3.23589 0.541735 1.3636 -0.0458693 1.09103 6.72897 -0.175553 1.09569 8.37389 -0.1943 -4.62021 -10.9385 -6.79634 1.28944 -8.36718 -6.86871 56.2234 -10.4041 -6.48055 123.324 33.8953 9.06711 -4.13833e-008 1.05047e-007 -3.38475e-006 4.65604 -0.0006596 -0.806855 -5.49491e-006 1.9926e-006 -3.06713 8.02899 -4.95145 0.697667 -61.1052 -1.37966 1.1062 -116.398 33.0204 -0.810869 -2.14211e-006 -1.98145e-006 5.51095e-006 -7.59288 0.0701682 1.69282 2.32597e-006 6.81768e-006 3.10849 -8.02904 -4.95145 -0.69769 173.474 43.8265 6.57212 180 7.01501e-015 178.739 -176.216 72.9414 175.332 -1.03178e-006 3.14144e-006 3.1083 -98.6544 83.9321 102.737 8.18139 29.7541 -0.599971 -167.399 45.2907 -10.9681 4.54188e-006 -4.6773e-006 -1.20212 3.54512 -72.8791 3.67583 3.40533e-006 -6.7732e-007 -3.46827 79.5525 83.8618 -83.4196 -8.1175 28.1415 -0.343438 
51.5432 81.756 19.8403 -0.548678 5.82899 3.25597 0.543785 1.37209 -0.0448985 1.09515 6.74595 -0.174013 1.09981 8.39087 -0.192829 -4.6495 -10.9183 -6.819 1.33781 -8.33782 -6.88627 56.1259 -10.33 -6.43078 123.688 34.2459 8.85853 -4.13833e-008 1.05047e-007 -3.38475e-006 4.51267 0.0245711 -0.80337 -5.49492e-006 1.9926e-006 -3.06734 8.02899 -4.95145 0.697667 -61.0365 -1.3901 1.10559 -116.749 33.481 -0.420283 -2.14211e-006 -1.98145e-006 5.51095e-006 -7.57565 0.0752497 1.68221 2.32597e-006 6.81768e-006 3.10704 -8.02904 -4.95145 -0.69769 173.453 43.8324 6.62115 180 7.015e-015 178.737 -176.147 73.0879 175.269 -1.03178e-006 3.14144e-006 3.12467 -100.075 83.9109 104.185 8.18111 29.684 -0.60852 -167.396 45.3345 -11.0048 4.54188e-006 -4.6773e-006 -1.20667 3.61649 -73.0432 3.73913 3.40533e-006 -6.77321e-007 -3.4857 80.5335 83.8836 -84.417 -8.11887 28.122 -0.31859 
51.532 81.7137 19.808 -0.55671 5.77388 3.27036 0.546606 1.3793 -0.0439898 1.10082 6.76037 -0.172705 1.10548 8.40528 -0.191616 -4.67602 -10.8944 -6.83897 1.38947 -8.32303 -6.90026 56.0272 -10.2553 -6.38009 124.033 34.5844 8.63855 -4.13833e-008 1.05047e-007 -3.38475e-006 4.39275 0.0333003 -0.799615 -5.49491e-006 1.9926e-006 -3.06729 8.02899 -4.95145 0.697667 -60.9717 -1.40744 1.10956 -117.08 33.9131 -0.0211969 -2.14211e-006 -1.98145e-006 5.51095e-006 -7.5749 0.0774043 1.66642 2.32597e-006 6.81768e-006 3.10485 -8.02904 -4.95145 -0.69769 173.448 43.8501 6.65316 180 7.015e-015 178.734 -176.067 73.2427 175.196 -1.03178e-006 3.14144e-006 3.13997 -101.262 83.8904 105.396 8.181 29.6378 -0.614526 -167.402 45.3791 -11.018 4.54188e-006 -4.6773e-006 -1.21162 3.73082 -73.2108 3.8321 3.40533e-006 -6.77322e-007 -3.507 81.5392 83.9047 -85.4433 -8.12001 28.1049 -0.296529 
51.5511 81.6076 19.7855 -0.57068 5.71925 3.27825 0.550422 1.38547 -0.0429503 1.10852 6.77272 -0.171285 1.11319 8.41763 -0.190324 -4.70518 -10.8673 -6.85745 1.44963 -8.31984 -6.91134 55.9188 -10.1768 -6.32622 124.37 34.9074 8.40217 -4.13833e-008 1.05047e-007 -3.38475e-006 4.2955 0.0160551 -0.793787 -5.49491e-006 1.9926e-006 -3.06696 8.02899 -4.95145 0.697667 -60.9115 -1.4345 1.11969 -117.397 34.3215 0.39683 -2.14211e-006 -1.98145e-006 5.51095e-006 -7.59458 0.0535287 1.64023 2.32597e-006 6.81769e-006 3.10159 -8.02904 -4.95145 -0.69769 173.46 43.8767 6.66919 180 7.01499e-015 178.731 -175.979 73.4038 175.116 -1.03178e-006 3.14144e-006 3.15382 -102.23 83.8719 106.387 8.18132 29.6162 -0.620448 -167.415 45.4204 -11.008 4.54188e-006 -4.6773e-006 -1.21698 3.88885 -73.3798 3.95499 3.40533e-006 -6.77323e-007 -3.53267 82.6069 83.9256 -86.5366 -8.12102 28.0888 -0.27512 
51.5454 81.529 19.8009 -0.590035 5.66276 3.27944 0.555329 1.391 -0.0415916 1.11847 6.78376 -0.169394 1.12314 8.42867 -0.1886 -4.7422 -10.8374 -6.87572 1.52241 -8.32275 -6.92044 55.7925 -10.0915 -6.26743 124.712 35.2124 8.1436 -4.13833e-008 1.05047e-007 -3.38475e-006 4.21904 -0.0296728 -0.784681 -5.49492e-006 1.9926e-006 -3.06633 8.02899 -4.95145 0.697667 -60.8558 -1.47338 1.13705 -117.71 34.7127 0.844591 -2.14211e-006 -1.98145e-006 5.51095e-006 -7.63669 -0.0125402 1.60007 2.32597e-006 6.81769e-006 3.09711 -8.02904 -4.95145 -0.69769 173.487 43.9066 6.67212 180 7.01498e-015 178.728 -175.891 73.5668 175.034 -1.03178e-006 3.14144e-006 3.1659 -103.023 83.8556 107.2 8.18225 29.6161 -0.628985 -167.434 45.453 -10.9779 4.54188e-006 -4.6773e-006 -1.22267 4.08395 -73.5459 4.10291 3.40533e-006 -6.77324e-007 -3.56241 83.7655 83.9463 -87.7256 -8.12203 28.0716 -0.251851 
51.5629 81.4452 19.7716 -0.614192 5.60448 3.2745 0.561198 1.3959 -0.0399607 1.13039 6.79357 -0.167107 1.13506 8.43847 -0.186511 -4.78574 -10.8051 -6.89352 1.60588 -8.33086 -6.92757 55.6506 -10.0006 -6.20457 125.058 35.5003 7.86339 -4.13833e-008 1.05047e-007 -3.38475e-006 4.16289 -0.0972778 -0.773092 -5.49492e-006 1.9926e-006 -3.06543 8.02899 -4.95145 0.697667 -60.8033 -1.52299 1.16094 -118.019 35.086 1.31987 -2.14211e-006 -1.98145e-006 5.51095e-006 -7.69916 -0.111068 1.54817 2.32597e-006 6.81769e-006 3.09156 -8.02904 -4.95145 -0.69769 173.528 43.9384 6.66285 180 7.01497e-015 178.725 -175.801 73.7301 174.951 -1.03178e-006 3.14144e-006 3.17637 -103.659 83.8421 107.856 8.18371 29.6348 -0.639734 -167.458 45.477 -10.9295 4.54188e-006 -4.6773e-006 -1.22864 4.31219 -73.7082 4.27341 3.40533e-006 -6.77325e-007 -3.59558 85.0017 83.9659 -88.9963 -8.12303 28.0535 -0.226974 
51.5504 81.3873 19.7811 -0.642568 5.54446 3.26399 0.567896 1.40022 -0.0381048 1.144 6.8022 -0.164497 1.14868 8.44709 -0.184127 -4.83443 -10.7706 -6.91058 1.69815 -8.34327 -6.93275 55.4953 -9.90543 -6.1385 125.406 35.772 7.56208 -4.13833e-008 1.05047e-007 -3.38475e-006 4.12653 -0.180154 -0.759817 -5.49492e-006 1.9926e-006 -3.06429 8.02899 -4.95145 0.697667 -60.7531 -1.58222 1.19065 -118.327 35.4411 1.82035 -2.14211e-006 -1.98145e-006 5.51095e-006 -7.77991 -0.232321 1.48677 2.32597e-006 6.81769e-006 3.08512 -8.02904 -4.95145 -0.69769 173.582 43.9708 6.64228 180 7.01496e-015 178.722 -175.711 73.8921 174.866 -1.03178e-006 3.14143e-006 3.18535 -104.155 83.8313 108.369 8.18564 29.6697 -0.652292 -167.488 45.4926 -10.8647 4.54188e-006 -4.6773e-006 -1.23483 4.56945 -73.8656 4.46388 3.40533e-006 -6.77327e-007 -3.63158 86.3012 83.9836 -90.3336 -8.12403 28.0347 -0.200741 
51.5619 81.3175 19.7531 -0.674579 5.48277 3.24846 0.575293 1.40397 -0.036071 1.15903 6.8097 -0.161634 1.16371 8.45459 -0.181515 -4.88692 -10.7339 -6.92666 1.7973 -8.35906 -6.93598 55.329 -9.80701 -6.07005 125.757 36.0283 7.24026 -4.13833e-008 1.05047e-007 -3.38475e-006 4.10948 -0.271696 -0.745653 -5.49491e-006 1.9926e-006 -3.06294 8.02899 -4.95145 0.697667 -60.7041 -1.64999 1.22548 -118.632 35.7776 2.34365 -2.14211e-006 -1.98145e-006 5.51095e-006 -7.87684 -0.366563 1.4181 2.32597e-006 6.81769e-006 3.07796 -8.02904 -4.95145 -0.69769 173.648 44.0028 6.61132 180 7.01495e-015 178.719 -175.62 74.0513 174.781 -1.03178e-006 3.14143e-006 3.19299 -104.527 83.8234 108.757 8.18796 29.718 -0.666255 -167.523 45.4998 -10.7853 4.54188e-006 -4.6773e-006 -1.24119 4.85146 -74.0174 4.67152 3.40533e-006 -6.77328e-007 -3.66977 87.649 83.9987 -91.7219 -8.12503 28.0153 -0.173403 
